<svg xmlns="http://www.w3.org/2000/svg" width="960" height="640" viewBox="0 0 960 640">
<rect width="100%" height="100%" fill="white"/>
<style>text{font-family:Arial, sans-serif; fill:#111;} .small{font-size:14px;} .tick{font-size:13px;} .title{font-size:24px;font-weight:600;} .label{font-size:17px;}</style>
<line x1="110.00" y1="60" x2="110.00" y2="550" stroke="#e6e6e6"/>
<line x1="110.00" y1="550" x2="110.00" y2="556" stroke="#222"/>
<text class="tick" x="110.00" y="576" text-anchor="middle">0.0</text>
<line x1="264.29" y1="60" x2="264.29" y2="550" stroke="#e6e6e6"/>
<line x1="264.29" y1="550" x2="264.29" y2="556" stroke="#222"/>
<text class="tick" x="264.29" y="576" text-anchor="middle">0.2</text>
<line x1="418.57" y1="60" x2="418.57" y2="550" stroke="#e6e6e6"/>
<line x1="418.57" y1="550" x2="418.57" y2="556" stroke="#222"/>
<text class="tick" x="418.57" y="576" text-anchor="middle">0.4</text>
<line x1="572.86" y1="60" x2="572.86" y2="550" stroke="#e6e6e6"/>
<line x1="572.86" y1="550" x2="572.86" y2="556" stroke="#222"/>
<text class="tick" x="572.86" y="576" text-anchor="middle">0.6</text>
<line x1="727.14" y1="60" x2="727.14" y2="550" stroke="#e6e6e6"/>
<line x1="727.14" y1="550" x2="727.14" y2="556" stroke="#222"/>
<text class="tick" x="727.14" y="576" text-anchor="middle">0.8</text>
<line x1="881.43" y1="60" x2="881.43" y2="550" stroke="#e6e6e6"/>
<line x1="881.43" y1="550" x2="881.43" y2="556" stroke="#222"/>
<text class="tick" x="881.43" y="576" text-anchor="middle">1.0</text>
<line x1="110" y1="550.00" x2="920" y2="550.00" stroke="#e6e6e6"/>
<line x1="104" y1="550.00" x2="110" y2="550.00" stroke="#222"/>
<text class="tick" x="98" y="554.00" text-anchor="end">0.0e+00</text>
<line x1="110" y1="453.82" x2="920" y2="453.82" stroke="#e6e6e6"/>
<line x1="104" y1="453.82" x2="110" y2="453.82" stroke="#222"/>
<text class="tick" x="98" y="457.82" text-anchor="end">2.0e-07</text>
<line x1="110" y1="357.64" x2="920" y2="357.64" stroke="#e6e6e6"/>
<line x1="104" y1="357.64" x2="110" y2="357.64" stroke="#222"/>
<text class="tick" x="98" y="361.64" text-anchor="end">4.0e-07</text>
<line x1="110" y1="261.45" x2="920" y2="261.45" stroke="#e6e6e6"/>
<line x1="104" y1="261.45" x2="110" y2="261.45" stroke="#222"/>
<text class="tick" x="98" y="265.45" text-anchor="end">6.0e-07</text>
<line x1="110" y1="165.27" x2="920" y2="165.27" stroke="#e6e6e6"/>
<line x1="104" y1="165.27" x2="110" y2="165.27" stroke="#222"/>
<text class="tick" x="98" y="169.27" text-anchor="end">8.0e-07</text>
<line x1="110" y1="69.09" x2="920" y2="69.09" stroke="#e6e6e6"/>
<line x1="104" y1="69.09" x2="110" y2="69.09" stroke="#222"/>
<text class="tick" x="98" y="73.09" text-anchor="end">1.0e-06</text>
<line x1="110" y1="550" x2="920" y2="550" stroke="#222" stroke-width="2"/>
<line x1="110" y1="60" x2="110" y2="550" stroke="#222" stroke-width="2"/>
<polyline fill="none" stroke="#1f77b4" stroke-width="3" points="110.00,550.00 114.07,547.65 118.14,545.30 122.21,542.96 126.28,540.61 130.35,538.26 134.42,535.91 138.49,533.56 142.56,531.22 146.63,528.87 150.70,526.52 154.77,524.17 158.84,521.82 162.91,519.48 166.98,517.13 171.06,514.78 175.13,512.43 179.20,510.08 183.27,507.73 187.34,505.39 191.41,503.04 195.48,500.69 199.55,498.34 203.62,495.99 207.69,493.65 211.76,491.30 215.83,488.95 219.90,486.60 223.97,484.25 228.04,481.91 232.11,479.56 236.18,477.21 240.25,474.86 244.32,472.51 248.39,470.17 252.46,467.82 256.53,465.47 260.60,463.12 264.67,460.77 268.74,458.43 272.81,456.08 276.88,453.73 280.95,451.38 285.03,449.03 289.10,446.68 293.17,444.34 297.24,441.99 301.31,439.64 305.38,437.29 309.45,434.94 313.52,432.60 317.59,430.25 321.66,427.90 325.73,425.55 329.80,423.20 333.87,420.86 337.94,418.51 342.01,416.16 346.08,413.81 350.15,411.46 354.22,409.12 358.29,406.77 362.36,404.42 366.43,402.07 370.50,399.72 374.57,397.38 378.64,395.03 382.71,392.68 386.78,390.33 390.85,387.98 394.92,385.64 398.99,383.29 403.07,380.94 407.14,378.59 411.21,376.24 415.28,373.89 419.35,371.55 423.42,369.20 427.49,366.85 431.56,364.50 435.63,362.15 439.70,359.81 443.77,357.46 447.84,355.11 451.91,352.76 455.98,350.41 460.05,348.07 464.12,345.72 468.19,343.37 472.26,341.02 476.33,338.67 480.40,336.33 484.47,333.98 488.54,331.63 492.61,329.28 496.68,326.93 500.75,324.59 504.82,322.24 508.89,319.89 512.96,317.54 517.04,315.19 521.11,312.84 525.18,310.50 529.25,308.15 533.32,305.80 537.39,303.45 541.46,301.10 545.53,298.76 549.60,296.41 553.67,294.06 557.74,291.71 561.81,289.36 565.88,287.02 569.95,284.67 574.02,282.32 578.09,279.97 582.16,277.62 586.23,275.28 590.30,272.93 594.37,270.58 598.44,268.23 602.51,265.88 606.58,263.54 610.65,261.19 614.72,258.84 618.79,256.49 622.86,254.14 626.93,251.79 631.01,249.45 635.08,247.10 639.15,244.75 643.22,242.40 647.29,240.05 651.36,237.71 655.43,235.36 659.50,233.01 663.57,230.66 667.64,228.31 671.71,225.97 675.78,223.62 679.85,221.27 683.92,218.92 687.99,216.57 692.06,214.23 696.13,211.88 700.20,209.53 704.27,207.18 708.34,204.83 712.41,202.49 716.48,200.14 720.55,197.79 724.62,195.44 728.69,193.09 732.76,190.75 736.83,188.40 740.90,186.05 744.97,183.70 749.05,181.35 753.12,179.00 757.19,176.66 761.26,174.31 765.33,171.96 769.40,169.61 773.47,167.26 777.54,164.92 781.61,162.57 785.68,160.22 789.75,157.87 793.82,155.52 797.89,153.18 801.96,150.83 806.03,148.48 810.10,146.13 814.17,143.78 818.24,141.44 822.31,139.09 826.38,136.74 830.45,134.39 834.52,132.04 838.59,129.70 842.66,127.35 846.73,125.00 850.80,122.65 854.87,120.30 858.94,117.95 863.02,115.61 867.09,113.26 871.16,110.91 875.23,108.56 879.30,106.21 883.37,103.87 887.44,101.52 891.51,99.17 895.58,96.82 899.65,94.47 903.72,92.13 907.79,89.78 911.86,87.43 915.93,85.08 920.00,82.73"/>
<polyline fill="none" stroke="#d62728" stroke-width="2" stroke-dasharray="8 6" points="110.00,504.45 114.07,502.43 118.14,500.42 122.21,498.40 126.28,496.39 130.35,494.37 134.42,492.36 138.49,490.34 142.56,488.33 146.63,486.31 150.70,484.30 154.77,482.28 158.84,480.27 162.91,478.25 166.98,476.24 171.06,474.22 175.13,472.21 179.20,470.19 183.27,468.18 187.34,466.16 191.41,464.15 195.48,462.13 199.55,460.12 203.62,458.10 207.69,456.09 211.76,454.07 215.83,452.06 219.90,450.04 223.97,448.03 228.04,446.01 232.11,444.00 236.18,441.98 240.25,439.97 244.32,437.95 248.39,435.94 252.46,433.92 256.53,431.91 260.60,429.89 264.67,427.88 268.74,425.86 272.81,423.85 276.88,421.83 280.95,419.82 285.03,417.80 289.10,415.79 293.17,413.77 297.24,411.76 301.31,409.74 305.38,407.73 309.45,405.71 313.52,403.70 317.59,401.68 321.66,399.67 325.73,397.65 329.80,395.64 333.87,393.62 337.94,391.61 342.01,389.59 346.08,387.58 350.15,385.56 354.22,383.55 358.29,381.53 362.36,379.52 366.43,377.50 370.50,375.49 374.57,373.47 378.64,371.46 382.71,369.44 386.78,367.43 390.85,365.41 394.92,363.40 398.99,361.38 403.07,359.37 407.14,357.35 411.21,355.34 415.28,353.32 419.35,351.31 423.42,349.29 427.49,347.28 431.56,345.26 435.63,343.25 439.70,341.23 443.77,339.22 447.84,337.20 451.91,335.19 455.98,333.17 460.05,331.15 464.12,329.14 468.19,327.12 472.26,325.11 476.33,323.09 480.40,321.08 484.47,319.06 488.54,317.05 492.61,315.03 496.68,313.02 500.75,311.00 504.82,308.99 508.89,306.97 512.96,304.96 517.04,302.94 521.11,300.93 525.18,298.91 529.25,296.90 533.32,294.88 537.39,292.87 541.46,290.85 545.53,288.84 549.60,286.82 553.67,284.81 557.74,282.79 561.81,280.78 565.88,278.76 569.95,276.75 574.02,274.73 578.09,272.72 582.16,270.70 586.23,268.69 590.30,266.67 594.37,264.66 598.44,262.64 602.51,260.63 606.58,258.61 610.65,256.60 614.72,254.58 618.79,252.57 622.86,250.55 626.93,248.54 631.01,246.52 635.08,244.51 639.15,242.49 643.22,240.48 647.29,238.46 651.36,236.45 655.43,234.43 659.50,232.42 663.57,230.40 667.64,228.39 671.71,226.37 675.78,224.36 679.85,222.34 683.92,220.33 687.99,218.31 692.06,216.30 696.13,214.28 700.20,212.27 704.27,210.25 708.34,208.24 712.41,206.22 716.48,204.21 720.55,202.19 724.62,200.18 728.69,198.16 732.76,196.15 736.83,194.13 740.90,192.12 744.97,190.10 749.05,188.09 753.12,186.07 757.19,184.06 761.26,182.04 765.33,180.03 769.40,178.01 773.47,176.00 777.54,173.98 781.61,171.97 785.68,169.95 789.75,167.94 793.82,165.92 797.89,163.91 801.96,161.89 806.03,159.88 810.10,157.86 814.17,155.85 818.24,153.83 822.31,151.82 826.38,149.80 830.45,147.79 834.52,145.77 838.59,143.76 842.66,141.74 846.73,139.73 850.80,137.71 854.87,135.70 858.94,133.68 863.02,131.67 867.09,129.65 871.16,127.64 875.23,125.62 879.30,123.61 883.37,121.59 887.44,119.58 891.51,117.56 895.58,115.55 899.65,113.53 903.72,111.52 907.79,109.50 911.86,107.49 915.93,105.47 920.00,103.46"/>
<circle cx="187.14" cy="468.25" r="5" fill="black"/>
<circle cx="341.43" cy="386.49" r="5" fill="black"/>
<circle cx="495.71" cy="315.80" r="5" fill="black"/>
<circle cx="688.57" cy="215.77" r="5" fill="black"/>
<circle cx="881.43" cy="123.91" r="5" fill="black"/>
<text class="title" x="480.0" y="34" text-anchor="middle">Question 3: Charging Current vs Scan Rate</text>
<text class="label" x="480.0" y="614" text-anchor="middle">Scan rate, v (V/s)</text>
<text class="label" transform="translate(32 320.0) rotate(-90)" text-anchor="middle">Charging current, i (A)</text>
<rect x="570" y="80" width="340" height="110" fill="white" stroke="#cfcfcf"/>
<line x1="584" y1="102" x2="628" y2="102" stroke="#1f77b4" stroke-width="3"/>
<text class="small" x="636" y="107">Fit through origin: i = v C_d</text>
<text class="small" x="636" y="127">C_d = 9.254e-07 F = 0.925 µF</text>
<line x1="584" y1="146" x2="628" y2="146" stroke="#d62728" stroke-width="2" stroke-dasharray="8 6"/>
<text class="small" x="636" y="151">OLS (with intercept): i = (7.941e-07)v + (9.47e-08)</text>
<circle cx="606" cy="170" r="5" fill="black"/>
<text class="small" x="636" y="175">Data</text>
</svg>